<?xml version="1.0" encoding="UTF-8" standalone="no"?>
<!-- Created with Inkscape (http://www.inkscape.org/) -->

<svg
   version="1.1"
   id="svg2"
   xml:space="preserve"
   width="514.01599"
   height="187.532"
   viewBox="0 0 514.01599 187.532"
   sodipodi:docname="OL_logo_NZ.svg"
   inkscape:version="1.1.2 (b8e25be833, 2022-02-05)"
   xmlns:inkscape="http://www.inkscape.org/namespaces/inkscape"
   xmlns:sodipodi="http://sodipodi.sourceforge.net/DTD/sodipodi-0.dtd"
   xmlns="http://www.w3.org/2000/svg"
   xmlns:svg="http://www.w3.org/2000/svg"><defs
     id="defs6"><clipPath
       clipPathUnits="userSpaceOnUse"
       id="clipPath20"><path
         d="M 0,0 H 385.512 V 140.649 H 0 Z"
         id="path18" /></clipPath><clipPath
       clipPathUnits="userSpaceOnUse"
       id="clipPath40"><path
         d="M 0,0 H 385.512 V 140.649 H 0 Z"
         id="path38" /></clipPath><clipPath
       clipPathUnits="userSpaceOnUse"
       id="clipPath56"><path
         d="M 0,0 H 385.512 V 140.649 H 0 Z"
         id="path54" /></clipPath><clipPath
       clipPathUnits="userSpaceOnUse"
       id="clipPath80"><path
         d="M 0,0 H 385.512 V 140.649 H 0 Z"
         id="path78" /></clipPath><clipPath
       clipPathUnits="userSpaceOnUse"
       id="clipPath248"><path
         d="M 0,0 H 385.512 V 140.649 H 0 Z"
         id="path246" /></clipPath><clipPath
       clipPathUnits="userSpaceOnUse"
       id="clipPath264"><path
         d="M 0,0 H 385.512 V 140.649 H 0 Z"
         id="path262" /></clipPath><clipPath
       clipPathUnits="userSpaceOnUse"
       id="clipPath284"><path
         d="M 0,0 H 385.512 V 140.649 H 0 Z"
         id="path282" /></clipPath><clipPath
       clipPathUnits="userSpaceOnUse"
       id="clipPath340"><path
         d="M 0,0 H 385.512 V 140.649 H 0 Z"
         id="path338" /></clipPath></defs><sodipodi:namedview
     id="namedview4"
     pagecolor="#ffffff"
     bordercolor="#666666"
     borderopacity="1.0"
     inkscape:pageshadow="2"
     inkscape:pageopacity="0.0"
     inkscape:pagecheckerboard="0"
     showgrid="false"
     inkscape:zoom="2.2800847"
     inkscape:cx="256.78871"
     inkscape:cy="93.856162"
     inkscape:window-width="1920"
     inkscape:window-height="1009"
     inkscape:window-x="3432"
     inkscape:window-y="-8"
     inkscape:window-maximized="1"
     inkscape:current-layer="g8" /><g
     id="g8"
     inkscape:groupmode="layer"
     inkscape:label="Vector Smart Object"
     transform="matrix(1.3333333,0,0,-1.3333333,0,187.532)"><g
       id="g1325"><g
         id="g10"
         transform="translate(282.0915,116.5158)"><path
           d="M 0,0 0.018,-0.018 0.037,0 Z"
           style="fill:#ef4138;fill-opacity:1;fill-rule:nonzero;stroke:none"
           id="path12" /></g><g
         id="g14"><g
           id="g16"
           clip-path="url(#clipPath20)"><g
             id="g22"
             transform="translate(43.4888,132.7279)"><path
               d="m 0,0 c 0,-4.59 -3.864,-7.921 -9.309,-7.921 -5.444,0 -9.308,3.331 -9.308,7.921 0,4.59 3.864,7.921 9.308,7.921 C -3.864,7.921 0,4.59 0,0 m -13.664,0 c 0,-2.348 1.943,-3.757 4.355,-3.757 2.413,0 4.356,1.409 4.356,3.757 0,2.349 -1.943,3.758 -4.356,3.758 -2.412,0 -4.355,-1.409 -4.355,-3.758"
               style="fill:#26255f;fill-opacity:1;fill-rule:nonzero;stroke:none"
               id="path24" /></g><g
             id="g26"
             transform="translate(63.158,125.0632)"><path
               d="M 0,0 H -4.847 V 15.33 H 5.231 c 3.928,0 6.448,-1.943 6.448,-5.317 0,-2.22 -1.217,-3.928 -3.288,-4.761 L 11.999,0 H 6.405 L 3.33,4.697 H 0 Z m 4.975,8.455 c 1.259,0 1.921,0.576 1.921,1.409 0,0.875 -0.662,1.452 -1.921,1.452 H 0 V 8.455 Z"
               style="fill:#26255f;fill-opacity:1;fill-rule:nonzero;stroke:none"
               id="path28" /></g></g></g><g
         id="g30"
         transform="translate(104.2623,140.3928)"><path
           d="M 0,0 -3.651,-9.373 -7.303,0 h -7.151 v -15.33 h 4.718 v 10.185 l 4.099,-10.185 h 3.886 L 2.348,-5.145 V -15.33 H 7.067 V 0 Z"
           style="fill:#26255f;fill-opacity:1;fill-rule:nonzero;stroke:none"
           id="path32" /></g><g
         id="g34"><g
           id="g36"
           clip-path="url(#clipPath40)"><g
             id="g42"
             transform="translate(144.769,132.7279)"><path
               d="m 0,0 c 0,-4.59 -3.864,-7.921 -9.308,-7.921 -5.445,0 -9.309,3.331 -9.309,7.921 0,4.59 3.864,7.921 9.309,7.921 C -3.864,7.921 0,4.59 0,0 m -13.664,0 c 0,-2.348 1.943,-3.757 4.356,-3.757 2.412,0 4.355,1.409 4.355,3.757 0,2.349 -1.943,3.758 -4.355,3.758 -2.413,0 -4.356,-1.409 -4.356,-3.758"
               style="fill:#26255f;fill-opacity:1;fill-rule:nonzero;stroke:none"
               id="path44" /></g></g></g><g
         id="g46"
         transform="translate(172.0818,140.3928)"><path
           d="M 0,0 V -8.54 L -7.686,0 h -4.804 v -15.33 h 4.74 v 9.074 l 8.199,-9.074 h 4.29 V 0 Z"
           style="fill:#26255f;fill-opacity:1;fill-rule:nonzero;stroke:none"
           id="path48" /></g><g
         id="g50"><g
           id="g52"
           clip-path="url(#clipPath56)"><g
             id="g58"
             transform="translate(192.1988,140.393)"><path
               d="m 0,0 h 8.199 c 5.743,0 9.202,-2.989 9.202,-7.665 0,-4.675 -3.459,-7.665 -9.202,-7.665 H 0 Z m 8.199,-11.273 c 2.861,0 4.398,1.43 4.398,3.608 0,2.178 -1.537,3.609 -4.398,3.609 H 4.74 v -7.217 z"
               style="fill:#26255f;fill-opacity:1;fill-rule:nonzero;stroke:none"
               id="path60" /></g></g></g><g
         id="g62"
         transform="translate(244.494,140.3928)"><path
           d="m 0,0 v -15.33 h 13.942 v 4.057 H 4.846 V 0 Z"
           style="fill:#26255f;fill-opacity:1;fill-rule:nonzero;stroke:none"
           id="path64" /></g><g
         id="g66"
         transform="translate(279.6201,140.3928)"><path
           d="m 0,0 -7.387,-15.33 h 5.124 l 1.152,2.435 h 7.644 l 1.131,-2.435 h 5.36 L 5.637,0 Z M 2.732,-4.739 4.761,-9.095 H 0.683 Z"
           style="fill:#26255f;fill-opacity:1;fill-rule:nonzero;stroke:none"
           id="path68" /></g><g
         id="g70"
         transform="translate(321.408,140.3928)"><path
           d="M 0,0 -3.651,-9.373 -7.302,0 h -7.152 v -15.33 h 4.719 V -5.145 L -5.637,-15.33 H -1.75 L 2.348,-5.145 V -15.33 H 7.067 V 0 Z"
           style="fill:#26255f;fill-opacity:1;fill-rule:nonzero;stroke:none"
           id="path72" /></g><g
         id="g74"><g
           id="g76"
           clip-path="url(#clipPath80)"><g
             id="g82"
             transform="translate(343.8528,140.393)"><path
               d="m 0,0 h 10.931 c 3.459,0 5.402,-1.495 5.402,-4.249 0,-1.601 -1.11,-2.711 -2.007,-3.16 1.26,-0.576 2.412,-1.772 2.412,-3.544 0,-2.732 -1.921,-4.377 -5.444,-4.377 L 0,-15.33 Z m 10.419,-5.85 c 0.897,0 1.345,0.342 1.345,0.982 0,0.641 -0.448,0.982 -1.345,0.982 H 4.655 V -5.85 Z m -5.764,-5.551 h 6.106 c 0.854,0 1.302,0.406 1.302,1.024 0,0.62 -0.448,1.025 -1.302,1.025 H 4.655 Z"
               style="fill:#26255f;fill-opacity:1;fill-rule:nonzero;stroke:none"
               id="path84" /></g></g></g><g
         id="g86"
         transform="translate(0,131.6547)"><path
           d="M 0,0 4.378,-4.378 8.754,0 4.378,4.377 Z"
           style="fill:#26255f;fill-opacity:1;fill-rule:nonzero;stroke:none"
           id="path88" /></g><g
         id="g90"
         transform="translate(376.5753,131.6547)"><path
           d="M 0,0 4.377,-4.378 8.754,0 4.377,4.377 Z"
           style="fill:#26255f;fill-opacity:1;fill-rule:nonzero;stroke:none"
           id="path92" /></g><g
         id="g94"
         transform="translate(281.5933,117.0765)"><path
           d="M 0,0 93.896,-93.973 98.748,-89.07 9.782,0 Z"
           style="fill:#ef4138;fill-opacity:1;fill-rule:nonzero;stroke:none"
           id="path96" /></g><g
         id="g98"
         transform="translate(329.0055,23.1078)"><path
           d="m 0,0 h 9.807 l 18.401,18.408 -4.904,4.903 z"
           style="fill:#ef4138;fill-opacity:1;fill-rule:nonzero;stroke:none"
           id="path100" /></g><g
         id="g102"
         transform="translate(47.4069,23.1078)"><path
           d="m 0,0 h 9.807 l 65.379,65.4 -4.904,4.904 z"
           style="fill:#ef4138;fill-opacity:1;fill-rule:nonzero;stroke:none"
           id="path104" /></g><g
         id="g106"
         transform="translate(23.877,23.102)"><path
           d="M 0,0 9.855,0.006 86.959,77.163 82.052,82.07 Z"
           style="fill:#ef4138;fill-opacity:1;fill-rule:nonzero;stroke:none"
           id="path108" /></g><g
         id="g110"
         transform="translate(141.3438,23.1078)"><path
           d="m 0,0 h 9.808 l 18.417,18.425 -4.904,4.903 z"
           style="fill:#ef4138;fill-opacity:1;fill-rule:nonzero;stroke:none"
           id="path112" /></g><g
         id="g114"
         transform="translate(70.8909,23.1078)"><path
           d="m 0,0 h 9.85 l 53.608,53.644 -4.914,4.914 z"
           style="fill:#ef4138;fill-opacity:1;fill-rule:nonzero;stroke:none"
           id="path116" /></g><g
         id="g118"
         transform="translate(164.8279,23.1078)"><path
           d="m 0,0 9.85,-0.001 6.656,6.66 -4.925,4.924 z"
           style="fill:#ef4138;fill-opacity:1;fill-rule:nonzero;stroke:none"
           id="path120" /></g><g
         id="g122"
         transform="translate(117.8585,23.1064)"><path
           d="m 0,0 9.852,0.001 30.13,30.152 -4.919,4.919 z"
           style="fill:#ef4138;fill-opacity:1;fill-rule:nonzero;stroke:none"
           id="path124" /></g><g
         id="g126"
         transform="translate(94.3757,23.1078)"><path
           d="M 0,0 H 9.807 L 51.706,41.912 46.8,46.817 Z"
           style="fill:#ef4138;fill-opacity:1;fill-rule:nonzero;stroke:none"
           id="path128" /></g><g
         id="g130"
         transform="translate(235.0685,23.1078)"><path
           d="m 0,0 h 9.807 l 65.361,65.383 -4.903,4.904 z"
           style="fill:#ef4138;fill-opacity:1;fill-rule:nonzero;stroke:none"
           id="path132" /></g><g
         id="g134"
         transform="translate(211.5425,23.1077)"><path
           d="m 0,0 h 9.851 l 77.087,77.14 -4.907,4.908 z"
           style="fill:#ef4138;fill-opacity:1;fill-rule:nonzero;stroke:none"
           id="path136" /></g><g
         id="g138"
         transform="translate(258.5517,23.1078)"><path
           d="m 0,0 h 9.849 l 53.593,53.627 -4.914,4.914 z"
           style="fill:#ef4138;fill-opacity:1;fill-rule:nonzero;stroke:none"
           id="path140" /></g><g
         id="g142"
         transform="translate(352.4886,23.1078)"><path
           d="m 0,0 h 9.85 l 6.639,6.643 -4.925,4.924 z"
           style="fill:#ef4138;fill-opacity:1;fill-rule:nonzero;stroke:none"
           id="path144" /></g><g
         id="g146"
         transform="translate(305.5206,23.1078)"><path
           d="m 0,0 h 9.849 l 30.115,30.134 -4.919,4.919 z"
           style="fill:#ef4138;fill-opacity:1;fill-rule:nonzero;stroke:none"
           id="path148" /></g><g
         id="g150"
         transform="translate(282.0374,23.1078)"><path
           d="m 0,0 h 9.806 l 41.882,41.895 -4.905,4.904 z"
           style="fill:#ef4138;fill-opacity:1;fill-rule:nonzero;stroke:none"
           id="path152" /></g><g
         id="g154"
         transform="translate(351.9963,117.0765)"><path
           d="m 0,0 33.515,-33.518 v 9.81 L 9.805,0 Z"
           style="fill:#26255f;fill-opacity:1;fill-rule:nonzero;stroke:none"
           id="path156" /></g><g
         id="g158"
         transform="translate(375.4881,117.0765)"><path
           d="M 0,0 10.023,-10.025 V 0 Z"
           style="fill:#26255f;fill-opacity:1;fill-rule:nonzero;stroke:none"
           id="path160" /></g><g
         id="g162"
         transform="translate(305.0289,117.0765)"><path
           d="m 0,0 80.482,-80.502 v 9.811 L 9.809,0 Z"
           style="fill:#26255f;fill-opacity:1;fill-rule:nonzero;stroke:none"
           id="path164" /></g><g
         id="g166"
         transform="translate(328.5207,117.0765)"><path
           d="m 0,0 56.991,-57.006 v 9.831 L 9.85,0 Z"
           style="fill:#26255f;fill-opacity:1;fill-rule:nonzero;stroke:none"
           id="path168" /></g><g
         id="g170"
         transform="translate(370.8243,27.7902)"><path
           d="M 0,0 4.658,-4.683 H 14.53 L 4.91,4.88 Z"
           style="fill:#ef4138;fill-opacity:1;fill-rule:nonzero;stroke:none"
           id="path172" /></g><g
         id="g174"
         transform="translate(70.5933,117.0765)"><path
           d="M 0,0 11.875,-11.885 5.035,-18.729 -13.682,0 h -9.849 L 0.114,-23.65 -6.719,-30.487 -37.193,0 h -9.806 l 35.377,-35.391 -6.833,-6.834 L -60.744,0 h -9.849 l 47.224,-47.142 -6.834,-6.836 -40.224,40.234 v -9.808 l 35.32,-35.331 -6.806,-6.809 -28.514,28.533 v -9.834 l 23.604,-23.609 -6.835,-6.838 -16.769,16.775 v -9.811 l 11.866,-11.87 -11.851,-11.628 h 9.805 L 28.626,-4.967 23.663,-0.004 16.735,-6.906 9.805,0 Z"
           style="fill:#26255f;fill-opacity:1;fill-rule:nonzero;stroke:none"
           id="path176" /></g><g
         id="g178"
         transform="translate(94.247,117.0765)"><path
           d="m 0,0 93.782,-93.969 4.906,4.903 L 9.834,0 Z"
           style="fill:#ef4138;fill-opacity:1;fill-rule:nonzero;stroke:none"
           id="path180" /></g><g
         id="g182"
         transform="translate(187.848,23.289)"><path
           d="m 0,0 0.181,-0.181 h 9.85 l 88.834,88.864 -5.111,5.105 z"
           style="fill:#26255f;fill-opacity:1;fill-rule:nonzero;stroke:none"
           id="path184" /></g><g
         id="g186"
         transform="translate(117.7301,117.0765)"><path
           d="m 0,0 82.23,-82.248 4.905,4.904 L 9.81,0 Z"
           style="fill:#26255f;fill-opacity:1;fill-rule:nonzero;stroke:none"
           id="path188" /></g><g
         id="g190"
         transform="translate(164.7077,117.0765)"><path
           d="m 0,0 58.738,-58.756 4.903,4.905 L 9.806,0 Z"
           style="fill:#26255f;fill-opacity:1;fill-rule:nonzero;stroke:none"
           id="path192" /></g><g
         id="g194"
         transform="translate(141.2202,117.0765)"><path
           d="m 0,0 70.486,-70.5 4.909,4.911 L 9.849,0 Z"
           style="fill:#26255f;fill-opacity:1;fill-rule:nonzero;stroke:none"
           id="path196" /></g><g
         id="g198"
         transform="translate(235.1598,117.0765)"><path
           d="m 0,0 23.513,-23.517 4.92,4.921 L 9.849,0 Z"
           style="fill:#26255f;fill-opacity:1;fill-rule:nonzero;stroke:none"
           id="path200" /></g><g
         id="g202"
         transform="translate(211.6766,117.0765)"><path
           d="M 0,0 35.253,-35.264 40.156,-30.36 9.806,0 Z"
           style="fill:#26255f;fill-opacity:1;fill-rule:nonzero;stroke:none"
           id="path204" /></g><g
         id="g206"
         transform="translate(188.1917,117.0765)"><path
           d="m 0,0 46.998,-47.008 4.915,4.916 L 9.848,0 Z"
           style="fill:#26255f;fill-opacity:1;fill-rule:nonzero;stroke:none"
           id="path208" /></g><g
         id="g210"
         transform="translate(258.6761,117.0765)"><path
           d="M 0,0 11.753,-11.757 16.656,-6.852 9.806,0 Z"
           style="fill:#26255f;fill-opacity:1;fill-rule:nonzero;stroke:none"
           id="path212" /></g><g
         id="g214"
         transform="translate(47.4069,23.1078)"><path
           d="m 0,0 h 9.807 l 66.087,65.992 -4.76,5.17 z"
           style="fill:#ef4138;fill-opacity:1;fill-rule:nonzero;stroke:none"
           id="path216" /></g><g
         id="g218"
         transform="translate(23.877,23.102)"><path
           d="m 0,0 9.855,0.006 78.261,78.358 -4.909,4.908 z"
           style="fill:#ef4138;fill-opacity:1;fill-rule:nonzero;stroke:none"
           id="path220" /></g><g
         id="g222"
         transform="translate(141.3438,23.1078)"><path
           d="m 0,0 h 9.808 l 19.036,19.105 -4.903,4.903 z"
           style="fill:#ef4138;fill-opacity:1;fill-rule:nonzero;stroke:none"
           id="path224" /></g><g
         id="g226"
         transform="translate(70.8909,23.1078)"><path
           d="m 0,0 h 9.85 l 54.076,54.24 -4.913,4.914 z"
           style="fill:#ef4138;fill-opacity:1;fill-rule:nonzero;stroke:none"
           id="path228" /></g><g
         id="g230"
         transform="translate(164.8279,23.1078)"><path
           d="m 0,0 9.85,-0.001 7.556,7.589 -4.924,4.924 z"
           style="fill:#ef4138;fill-opacity:1;fill-rule:nonzero;stroke:none"
           id="path232" /></g><g
         id="g234"
         transform="translate(117.8585,23.1064)"><path
           d="M 0,0 9.852,0.001 40.679,30.815 35.76,35.733 Z"
           style="fill:#ef4138;fill-opacity:1;fill-rule:nonzero;stroke:none"
           id="path236" /></g><g
         id="g238"
         transform="translate(94.3757,23.1078)"><path
           d="m 0,0 h 9.807 l 42.589,42.521 -4.904,4.904 z"
           style="fill:#ef4138;fill-opacity:1;fill-rule:nonzero;stroke:none"
           id="path240" /></g><g
         id="g242"><g
           id="g244"
           clip-path="url(#clipPath248)"><g
             id="g250"
             transform="translate(370.1101,138.6356)"><path
               d="m 0,0 c 0,0.489 -0.399,0.888 -0.894,0.888 h -1.312 v -2.432 h 0.579 v 0.656 h 0.624 l 0.488,-0.656 h 0.657 l -0.579,0.779 C -0.174,-0.611 0,-0.328 0,0 m -0.894,-0.309 h -0.733 v 0.618 h 0.733 c 0.174,0 0.321,-0.135 0.321,-0.309 0,-0.174 -0.147,-0.309 -0.321,-0.309 m -0.264,2.322 c -1.306,0 -2.367,-1.067 -2.367,-2.373 0,-1.306 1.061,-2.367 2.367,-2.367 1.306,0 2.374,1.061 2.374,2.367 0,1.306 -1.068,2.373 -2.374,2.373 m 0,-4.354 c -1.093,0 -1.981,0.887 -1.981,1.981 0,1.093 0.888,1.981 1.981,1.981 1.094,0 1.981,-0.888 1.981,-1.981 0,-1.094 -0.887,-1.981 -1.981,-1.981"
               style="fill:#26255f;fill-opacity:1;fill-rule:nonzero;stroke:none"
               id="path252" /></g></g></g><g
         id="g254"
         transform="translate(18.072,11.6928)"><path
           d="m 0,0 -4.443,-11.516 h 1.54 l 1.154,3.031 h 5.165 l 1.171,-3.031 H 6.143 L 1.7,0 Z m 0.818,-1.732 2.085,-5.406 h -4.138 z"
           style="fill:#26255f;fill-opacity:1;fill-rule:nonzero;stroke:none"
           id="path256" /></g><g
         id="g258"><g
           id="g260"
           clip-path="url(#clipPath264)"><g
             id="g266"
             transform="translate(36.9473,11.8693)"><path
               d="m 0,0 c 3.015,0 5.213,-2.422 5.213,-5.935 0,-3.512 -2.198,-5.934 -5.213,-5.934 -3.015,0 -5.229,2.422 -5.229,5.934 C -5.229,-2.422 -3.015,0 0,0 m 0,-1.364 c -2.165,0 -3.689,-1.844 -3.689,-4.571 0,-2.726 1.524,-4.571 3.689,-4.571 2.165,0 3.689,1.845 3.689,4.571 0,2.727 -1.524,4.571 -3.689,4.571"
               style="fill:#26255f;fill-opacity:1;fill-rule:nonzero;stroke:none"
               id="path268" /></g></g></g><g
         id="g270"
         transform="translate(49.4226,11.6928)"><path
           d="m 0,0 v -1.347 h 3.897 v -10.169 h 1.54 v 10.169 h 3.898 l 0,1.347 z"
           style="fill:#26255f;fill-opacity:1;fill-rule:nonzero;stroke:none"
           id="path272" /></g><g
         id="g274"
         transform="translate(67.5117,11.6928)"><path
           d="m 0,0 v -11.516 h 7.522 v 1.347 H 1.524 v 3.929 h 5.085 v 1.348 H 1.524 v 3.545 H 7.522 V 0 Z"
           style="fill:#26255f;fill-opacity:1;fill-rule:nonzero;stroke:none"
           id="path276" /></g><g
         id="g278"><g
           id="g280"
           clip-path="url(#clipPath284)"><g
             id="g286"
             transform="translate(104.3634,0.1763)"><path
               d="m 0,0 h -1.54 v 11.516 h 4.395 c 2.438,0 3.994,-1.139 3.994,-3.336 0,-1.844 -1.123,-2.967 -2.951,-3.272 L 7.09,0 H 5.325 L 2.229,4.828 H 0 Z m 2.775,6.159 c 1.636,0 2.55,0.722 2.55,2.021 0,1.299 -0.914,2.005 -2.55,2.005 H 0 V 6.159 Z"
               style="fill:#26255f;fill-opacity:1;fill-rule:nonzero;stroke:none"
               id="path288" /></g><g
             id="g290"
             transform="translate(124.9546,11.8693)"><path
               d="m 0,0 c 3.015,0 5.213,-2.422 5.213,-5.935 0,-3.512 -2.198,-5.934 -5.213,-5.934 -3.015,0 -5.229,2.422 -5.229,5.934 C -5.229,-2.422 -3.015,0 0,0 m 0,-1.364 c -2.165,0 -3.689,-1.844 -3.689,-4.571 0,-2.726 1.524,-4.571 3.689,-4.571 2.166,0 3.689,1.845 3.689,4.571 0,2.727 -1.523,4.571 -3.689,4.571"
               style="fill:#26255f;fill-opacity:1;fill-rule:nonzero;stroke:none"
               id="path292" /></g></g></g><g
         id="g294"
         transform="translate(142.1298,11.6928)"><path
           d="m 0,0 -4.442,-11.516 h 1.54 l 1.154,3.031 h 5.164 l 1.171,-3.031 H 6.143 L 1.7,0 Z m 0.818,-1.732 2.085,-5.406 h -4.138 z"
           style="fill:#26255f;fill-opacity:1;fill-rule:nonzero;stroke:none"
           id="path296" /></g><g
         id="g298"
         transform="translate(196.4142,11.6928)"><path
           d="M 0,0 V -8.902 L -5.983,0 h -1.62 v -11.516 h 1.476 v 9.271 L 0.16,-11.516 H 1.491 V 0 Z"
           style="fill:#26255f;fill-opacity:1;fill-rule:nonzero;stroke:none"
           id="path300" /></g><g
         id="g302"
         transform="translate(207.6534,11.6928)"><path
           d="m 0,0 v -11.516 h 7.523 v 1.347 H 1.525 v 3.929 h 5.084 v 1.348 H 1.525 v 3.545 H 7.523 V 0 Z"
           style="fill:#26255f;fill-opacity:1;fill-rule:nonzero;stroke:none"
           id="path304" /></g><g
         id="g306"
         transform="translate(236.1204,11.6928)"><path
           d="M 0,0 -2.454,-9.223 -4.892,0 H -6.256 L -8.678,-9.223 -11.132,0 h -1.588 l 3.176,-11.516 h 1.508 l 2.438,8.965 2.454,-8.965 h 1.508 L 1.524,0 Z"
           style="fill:#26255f;fill-opacity:1;fill-rule:nonzero;stroke:none"
           id="path308" /></g><g
         id="g310"
         transform="translate(256.4199,11.6928)"><path
           d="m 0,0 v -1.347 h 6.689 l -6.769,-8.982 v -1.187 h 8.774 v 1.347 H 1.86 l 6.77,8.982 0,1.187 z"
           style="fill:#26255f;fill-opacity:1;fill-rule:nonzero;stroke:none"
           id="path312" /></g><g
         id="g314"
         transform="translate(274.1562,11.6928)"><path
           d="m 0,0 v -11.516 h 7.523 v 1.347 H 1.524 v 3.929 h 5.085 v 1.348 H 1.524 v 3.545 H 7.523 V 0 Z"
           style="fill:#26255f;fill-opacity:1;fill-rule:nonzero;stroke:none"
           id="path316" /></g><g
         id="g318"
         transform="translate(294.3468,11.6928)"><path
           d="m 0,0 -4.442,-11.516 h 1.539 l 1.155,3.031 h 5.164 l 1.171,-3.031 H 6.143 L 1.7,0 Z m 0.818,-1.732 2.085,-5.406 h -4.138 z"
           style="fill:#26255f;fill-opacity:1;fill-rule:nonzero;stroke:none"
           id="path320" /></g><g
         id="g322"
         transform="translate(309.2274,11.6928)"><path
           d="m 0,0 v -11.516 h 7.282 v 1.347 H 1.54 V 0 Z"
           style="fill:#26255f;fill-opacity:1;fill-rule:nonzero;stroke:none"
           id="path324" /></g><g
         id="g326"
         transform="translate(328.7925,11.6928)"><path
           d="m 0,0 -4.443,-11.516 h 1.54 l 1.154,3.031 h 5.165 l 1.171,-3.031 H 6.143 L 1.7,0 Z m 0.818,-1.732 2.085,-5.406 h -4.139 z"
           style="fill:#26255f;fill-opacity:1;fill-rule:nonzero;stroke:none"
           id="path328" /></g><g
         id="g330"
         transform="translate(351.2763,11.6928)"><path
           d="M 0,0 V -8.902 L -5.983,0 h -1.62 v -11.516 h 1.476 v 9.271 L 0.16,-11.516 H 1.491 V 0 Z"
           style="fill:#26255f;fill-opacity:1;fill-rule:nonzero;stroke:none"
           id="path332" /></g><g
         id="g334"><g
           id="g336"
           clip-path="url(#clipPath340)"><g
             id="g342"
             transform="translate(362.5158,11.6927)"><path
               d="m 0,0 h 3.657 c 3.497,0 5.71,-2.246 5.71,-5.758 0,-3.513 -2.213,-5.758 -5.71,-5.758 H 0 Z m 3.657,-10.185 c 2.614,0 4.203,1.748 4.203,4.427 0,2.694 -1.589,4.427 -4.219,4.427 H 1.508 v -8.854 z"
               style="fill:#26255f;fill-opacity:1;fill-rule:nonzero;stroke:none"
               id="path344" /></g></g></g><g
         id="g346"
         transform="translate(163.7853,5.9369)"><path
           d="M 0,0 4.242,4.242 8.483,0 4.242,-4.242 Z"
           style="fill:#26255f;fill-opacity:1;fill-rule:nonzero;stroke:none"
           id="path348" /></g><g
         id="g350"
         transform="translate(87.813,11.6928)"><path
           d="m 0,0 -4.443,-11.516 h 1.54 l 1.154,3.031 h 5.165 l 1.171,-3.031 H 6.143 L 1.7,0 Z m 0.818,-1.732 2.084,-5.406 h -4.137 z"
           style="fill:#26255f;fill-opacity:1;fill-rule:nonzero;stroke:none"
           id="path352" /></g></g></g></svg>
