<?xml version="1.0" encoding="UTF-8" standalone="no"?>
<!-- Created with Inkscape (http://www.inkscape.org/) -->

<svg
   width="461.01544"
   height="167.82199"
   viewBox="0 0 121.977 44.402901"
   version="1.1"
   id="svg5"
   inkscape:version="1.1.2 (b8e25be833, 2022-02-05)"
   sodipodi:docname="logo.svg"
   xmlns:inkscape="http://www.inkscape.org/namespaces/inkscape"
   xmlns:sodipodi="http://sodipodi.sourceforge.net/DTD/sodipodi-0.dtd"
   xmlns="http://www.w3.org/2000/svg"
   xmlns:svg="http://www.w3.org/2000/svg">
  <sodipodi:namedview
     id="namedview7"
     pagecolor="#ffffff"
     bordercolor="#666666"
     borderopacity="1.0"
     inkscape:pageshadow="2"
     inkscape:pageopacity="0.0"
     inkscape:pagecheckerboard="0"
     inkscape:document-units="px"
     showgrid="false"
     units="px"
     inkscape:zoom="0.64052329"
     inkscape:cx="278.67839"
     inkscape:cy="-218.57129"
     inkscape:window-width="1284"
     inkscape:window-height="975"
     inkscape:window-x="2134"
     inkscape:window-y="108"
     inkscape:window-maximized="0"
     inkscape:current-layer="g3047" />
  <defs
     id="defs2">
    <clipPath
       clipPathUnits="userSpaceOnUse"
       id="clipPath3061">
      <path
         d="M 0,0 H 419.528 V 297.638 H 0 Z"
         id="path3059" />
    </clipPath>
    <clipPath
       clipPathUnits="userSpaceOnUse"
       id="clipPath3081">
      <path
         d="M 0,0 H 419.528 V 297.638 H 0 Z"
         id="path3079" />
    </clipPath>
    <clipPath
       clipPathUnits="userSpaceOnUse"
       id="clipPath3097">
      <path
         d="M 0,0 H 419.528 V 297.638 H 0 Z"
         id="path3095" />
    </clipPath>
    <clipPath
       clipPathUnits="userSpaceOnUse"
       id="clipPath3121">
      <path
         d="M 0,0 H 419.528 V 297.638 H 0 Z"
         id="path3119" />
    </clipPath>
    <clipPath
       clipPathUnits="userSpaceOnUse"
       id="clipPath3293">
      <path
         d="M 0,0 H 419.528 V 297.638 H 0 Z"
         id="path3291" />
    </clipPath>
  </defs>
  <g
     inkscape:label="Layer 1"
     inkscape:groupmode="layer"
     id="layer1"
     transform="translate(40.74796,-12.496793)">
    <g
       id="g3047"
       inkscape:label="Ormond_Lamb_A6_Sales_v6"
       transform="matrix(0.35277776,0,0,-0.35277776,-53.759462,87.198225)">
      <g
         id="g3051"
         transform="translate(289.8873,190.107)">
        <path
           d="M 0,0 0.017,-0.016 0.033,0 Z"
           style="fill:#ef2e33;fill-opacity:1;fill-rule:nonzero;stroke:none"
           id="path3053" />
      </g>
      <g
         id="g3055">
        <g
           id="g3057"
           clip-path="url(#clipPath3061)">
          <g
             id="g3063"
             transform="translate(75.8877,204.6475)">
            <path
               d="m 0,0 c 0,-4.117 -3.466,-7.104 -8.349,-7.104 -4.883,0 -8.349,2.987 -8.349,7.104 0,4.117 3.466,7.104 8.349,7.104 C -3.466,7.104 0,4.117 0,0 m -12.255,0 c 0,-2.106 1.742,-3.37 3.906,-3.37 2.164,0 3.907,1.264 3.907,3.37 0,2.107 -1.743,3.37 -3.907,3.37 -2.164,0 -3.906,-1.263 -3.906,-3.37"
               style="fill:#25285c;fill-opacity:1;fill-rule:nonzero;stroke:none"
               id="path3065" />
          </g>
          <g
             id="g3067"
             transform="translate(93.5287,197.7732)">
            <path
               d="m 0,0 h -4.347 v 13.749 h 9.038 c 3.524,0 5.783,-1.743 5.783,-4.768 0,-1.992 -1.091,-3.523 -2.949,-4.27 L 10.762,0 H 5.745 L 2.987,4.213 H 0 Z m 4.462,7.583 c 1.13,0 1.723,0.517 1.723,1.264 0,0.785 -0.593,1.302 -1.723,1.302 H 0 V 7.583 Z"
               style="fill:#25285c;fill-opacity:1;fill-rule:nonzero;stroke:none"
               id="path3069" />
          </g>
        </g>
      </g>
      <g
         id="g3071"
         transform="translate(125.3395,197.7732)">
        <path
           d="M 0,0 -3.677,9.134 V 0 h -4.232 v 13.749 h 6.415 l 3.275,-8.406 3.274,8.406 h 6.338 V 0 H 7.161 V 9.134 L 3.485,0 Z"
           style="fill:#25285c;fill-opacity:1;fill-rule:nonzero;stroke:none"
           id="path3073" />
      </g>
      <g
         id="g3075">
        <g
           id="g3077"
           clip-path="url(#clipPath3081)">
          <g
             id="g3083"
             transform="translate(166.7248,204.6475)">
            <path
               d="m 0,0 c 0,-4.117 -3.466,-7.104 -8.349,-7.104 -4.883,0 -8.349,2.987 -8.349,7.104 0,4.117 3.466,7.104 8.349,7.104 C -3.466,7.104 0,4.117 0,0 m -12.255,0 c 0,-2.106 1.742,-3.37 3.906,-3.37 2.164,0 3.907,1.264 3.907,3.37 0,2.107 -1.743,3.37 -3.907,3.37 -2.164,0 -3.906,-1.263 -3.906,-3.37"
               style="fill:#25285c;fill-opacity:1;fill-rule:nonzero;stroke:none"
               id="path3085" />
          </g>
        </g>
      </g>
      <g
         id="g3087"
         transform="translate(195.4724,197.7732)">
        <path
           d="m 0,0 h -3.849 l -7.353,8.138 V 0 h -4.251 v 13.749 h 4.309 l 6.893,-7.66 v 7.66 H 0 Z"
           style="fill:#25285c;fill-opacity:1;fill-rule:nonzero;stroke:none"
           id="path3089" />
      </g>
      <g
         id="g3091">
        <g
           id="g3093"
           clip-path="url(#clipPath3097)">
          <g
             id="g3099"
             transform="translate(209.2641,211.5223)">
            <path
               d="m 0,0 h 7.353 c 5.152,0 8.254,-2.681 8.254,-6.875 0,-4.193 -3.102,-6.874 -8.254,-6.874 H 0 Z m 7.353,-10.111 c 2.566,0 3.945,1.283 3.945,3.236 0,1.954 -1.379,3.237 -3.945,3.237 H 4.251 v -6.473 z"
               style="fill:#25285c;fill-opacity:1;fill-rule:nonzero;stroke:none"
               id="path3101" />
          </g>
        </g>
      </g>
      <g
         id="g3103"
         transform="translate(256.1671,211.5223)">
        <path
           d="m 0,0 h 4.347 v -10.111 h 8.157 v -3.638 H 0 Z"
           style="fill:#25285c;fill-opacity:1;fill-rule:nonzero;stroke:none"
           id="path3105" />
      </g>
      <g
         id="g3107"
         transform="translate(292.7266,211.5223)">
        <path
           d="M 0,0 6.626,-13.749 H 1.819 l -1.015,2.183 h -6.855 l -1.034,-2.183 h -4.596 L -5.055,0 Z m -4.442,-8.157 h 3.657 l -1.819,3.906 z"
           style="fill:#25285c;fill-opacity:1;fill-rule:nonzero;stroke:none"
           id="path3109" />
      </g>
      <g
         id="g3111"
         transform="translate(320.0953,197.7732)">
        <path
           d="M 0,0 -3.677,9.134 V 0 h -4.232 v 13.749 h 6.415 l 3.275,-8.406 3.274,8.406 h 6.338 V 0 H 7.161 V 9.134 L 3.485,0 Z"
           style="fill:#25285c;fill-opacity:1;fill-rule:nonzero;stroke:none"
           id="path3113" />
      </g>
      <g
         id="g3115">
        <g
           id="g3117"
           clip-path="url(#clipPath3121)">
          <g
             id="g3123"
             transform="translate(345.2809,211.5223)">
            <path
               d="m 0,0 h 9.804 c 3.103,0 4.845,-1.341 4.845,-3.811 0,-1.436 -0.996,-2.432 -1.8,-2.834 1.13,-0.517 2.164,-1.589 2.164,-3.178 0,-2.451 -1.723,-3.926 -4.883,-3.926 H 0 Z m 9.345,-5.247 c 0.804,0 1.206,0.307 1.206,0.881 0,0.574 -0.402,0.881 -1.206,0.881 h -5.17 v -1.762 z m -5.17,-4.978 h 5.476 c 0.766,0 1.168,0.363 1.168,0.918 0,0.556 -0.402,0.92 -1.168,0.92 H 4.175 Z"
               style="fill:#25285c;fill-opacity:1;fill-rule:nonzero;stroke:none"
               id="path3125" />
          </g>
        </g>
      </g>
      <g
         id="g3127"
         transform="translate(36.883,203.6848)">
        <path
           d="M 0,0 3.926,3.926 7.852,0 3.926,-3.926 Z"
           style="fill:#25285c;fill-opacity:1;fill-rule:nonzero;stroke:none"
           id="path3129" />
      </g>
      <g
         id="g3131"
         transform="translate(374.6291,203.6848)">
        <path
           d="M 0,0 3.926,3.926 7.852,0 3.926,-3.926 Z"
           style="fill:#25285c;fill-opacity:1;fill-rule:nonzero;stroke:none"
           id="path3133" />
      </g>
      <g
         id="g3135"
         transform="translate(289.4412,190.61)">
        <path
           d="m 0,0 84.214,-84.284 4.352,4.398 L 8.773,0 Z"
           style="fill:#ef2e33;fill-opacity:1;fill-rule:nonzero;stroke:none"
           id="path3137" />
      </g>
      <g
         id="g3139"
         transform="translate(331.9647,106.3304)">
        <path
           d="m 0,0 h 8.795 l 16.504,16.51 -4.398,4.398 z"
           style="fill:#ef2e33;fill-opacity:1;fill-rule:nonzero;stroke:none"
           id="path3141" />
      </g>
      <g
         id="g3143"
         transform="translate(79.4018,106.3304)">
        <path
           d="m 0,0 h 8.795 l 58.638,58.657 -4.398,4.398 z"
           style="fill:#ef2e33;fill-opacity:1;fill-rule:nonzero;stroke:none"
           id="path3145" />
      </g>
      <g
         id="g3147"
         transform="translate(58.2981,106.3253)">
        <path
           d="m 0,0 8.839,0.005 69.154,69.202 -4.402,4.401 z"
           style="fill:#ef2e33;fill-opacity:1;fill-rule:nonzero;stroke:none"
           id="path3149" />
      </g>
      <g
         id="g3151"
         transform="translate(163.6529,106.3304)">
        <path
           d="m 0,0 h 8.796 l 16.519,16.525 -4.399,4.398 z"
           style="fill:#ef2e33;fill-opacity:1;fill-rule:nonzero;stroke:none"
           id="path3153" />
      </g>
      <g
         id="g3155"
         transform="translate(100.4644,106.3304)">
        <path
           d="m 0,0 h 8.835 l 48.08,48.113 -4.407,4.407 z"
           style="fill:#ef2e33;fill-opacity:1;fill-rule:nonzero;stroke:none"
           id="path3157" />
      </g>
      <g
         id="g3159"
         transform="translate(184.7154,106.3304)">
        <path
           d="m 0,0 8.834,-0.001 5.97,5.974 -4.417,4.416 z"
           style="fill:#ef2e33;fill-opacity:1;fill-rule:nonzero;stroke:none"
           id="path3161" />
      </g>
      <g
         id="g3163"
         transform="translate(142.5891,106.3292)">
        <path
           d="M 0,0 8.836,0.001 35.86,27.044 31.448,31.456 Z"
           style="fill:#ef2e33;fill-opacity:1;fill-rule:nonzero;stroke:none"
           id="path3165" />
      </g>
      <g
         id="g3167"
         transform="translate(121.5276,106.3304)">
        <path
           d="m 0,0 h 8.796 l 37.578,37.59 -4.399,4.399 z"
           style="fill:#ef2e33;fill-opacity:1;fill-rule:nonzero;stroke:none"
           id="path3169" />
      </g>
      <g
         id="g3171"
         transform="translate(247.7135,106.3304)">
        <path
           d="M 0,0 H 8.796 L 67.418,58.641 63.02,63.04 Z"
           style="fill:#ef2e33;fill-opacity:1;fill-rule:nonzero;stroke:none"
           id="path3173" />
      </g>
      <g
         id="g3175"
         transform="translate(226.6133,106.3303)">
        <path
           d="m 0,0 h 8.835 l 69.139,69.186 -4.402,4.402 z"
           style="fill:#ef2e33;fill-opacity:1;fill-rule:nonzero;stroke:none"
           id="path3177" />
      </g>
      <g
         id="g3179"
         transform="translate(268.7754,106.3304)">
        <path
           d="M 0,0 H 8.834 L 56.9,48.098 52.493,52.505 Z"
           style="fill:#ef2e33;fill-opacity:1;fill-rule:nonzero;stroke:none"
           id="path3181" />
      </g>
      <g
         id="g3183"
         transform="translate(353.0264,106.3304)">
        <path
           d="m 0,0 h 8.834 l 5.955,5.958 -4.417,4.417 z"
           style="fill:#ef2e33;fill-opacity:1;fill-rule:nonzero;stroke:none"
           id="path3185" />
      </g>
      <g
         id="g3187"
         transform="translate(310.9013,106.3304)">
        <path
           d="m 0,0 h 8.834 l 27.01,27.027 -4.412,4.412 z"
           style="fill:#ef2e33;fill-opacity:1;fill-rule:nonzero;stroke:none"
           id="path3189" />
      </g>
      <g
         id="g3191"
         transform="translate(289.8394,106.3304)">
        <path
           d="m 0,0 h 8.795 l 37.564,37.575 -4.4,4.399 z"
           style="fill:#ef2e33;fill-opacity:1;fill-rule:nonzero;stroke:none"
           id="path3193" />
      </g>
      <g
         id="g3195"
         transform="translate(352.5846,190.61)">
        <path
           d="m 0,0 30.06,-30.062 v 8.798 L 8.795,0 Z"
           style="fill:#25285c;fill-opacity:1;fill-rule:nonzero;stroke:none"
           id="path3197" />
      </g>
      <g
         id="g3199"
         transform="translate(373.6546,190.61)">
        <path
           d="M 0,0 8.99,-8.991 V 0 Z"
           style="fill:#25285c;fill-opacity:1;fill-rule:nonzero;stroke:none"
           id="path3201" />
      </g>
      <g
         id="g3203"
         transform="translate(310.4603,190.61)">
        <path
           d="m 0,0 72.184,-72.202 v 8.799 L 8.798,0 Z"
           style="fill:#25285c;fill-opacity:1;fill-rule:nonzero;stroke:none"
           id="path3205" />
      </g>
      <g
         id="g3207"
         transform="translate(331.5301,190.61)">
        <path
           d="m 0,0 51.114,-51.128 v 8.817 L 8.834,0 Z"
           style="fill:#25285c;fill-opacity:1;fill-rule:nonzero;stroke:none"
           id="path3209" />
      </g>
      <g
         id="g3211"
         transform="translate(369.4711,110.53)">
        <path
           d="m 0,0 4.179,-4.2 h 8.853 L 4.404,4.377 Z"
           style="fill:#ef2e33;fill-opacity:1;fill-rule:nonzero;stroke:none"
           id="path3213" />
      </g>
      <g
         id="g3215"
         transform="translate(115.2072,184.416)">
        <path
           d="m 0,0 -6.216,6.194 h -8.794 l 10.651,-10.66 -6.136,-6.138 -16.786,16.798 h -8.834 l 21.208,-21.212 -6.129,-6.131 -27.332,27.343 h -8.794 l 31.728,-31.742 -6.128,-6.13 -37.928,37.872 h -8.834 l 42.354,-42.281 -6.128,-6.132 -36.077,36.086 v -8.797 l 31.678,-31.688 -6.104,-6.106 -25.574,25.59 v -8.82 l 21.171,-21.174 -6.131,-6.132 -15.04,15.044 v -8.799 l 10.642,-10.646 -10.628,-10.43 h 8.793 L 10.665,1.739 6.213,6.191 Z"
           style="fill:#25285c;fill-opacity:1;fill-rule:nonzero;stroke:none"
           id="path3217" />
      </g>
      <g
         id="g3219"
         transform="translate(121.4122,190.61)">
        <path
           d="m 0,0 84.112,-84.28 4.4,4.398 L 8.82,0 Z"
           style="fill:#ef2e33;fill-opacity:1;fill-rule:nonzero;stroke:none"
           id="path3221" />
      </g>
      <g
         id="g3223"
         transform="translate(205.3619,106.493)">
        <path
           d="m 0,0 0.162,-0.163 h 8.835 l 79.674,79.702 -4.584,4.578 z"
           style="fill:#25285c;fill-opacity:1;fill-rule:nonzero;stroke:none"
           id="path3225" />
      </g>
      <g
         id="g3227"
         transform="translate(142.474,190.61)">
        <path
           d="M 0,0 73.752,-73.767 78.15,-69.369 8.798,0 Z"
           style="fill:#25285c;fill-opacity:1;fill-rule:nonzero;stroke:none"
           id="path3229" />
      </g>
      <g
         id="g3231"
         transform="translate(184.6077,190.61)">
        <path
           d="m 0,0 52.681,-52.698 4.398,4.4 L 8.795,0 Z"
           style="fill:#25285c;fill-opacity:1;fill-rule:nonzero;stroke:none"
           id="path3233" />
      </g>
      <g
         id="g3235"
         transform="translate(163.542,190.61)">
        <path
           d="m 0,0 63.218,-63.23 4.403,4.404 L 8.834,0 Z"
           style="fill:#25285c;fill-opacity:1;fill-rule:nonzero;stroke:none"
           id="path3237" />
      </g>
      <g
         id="g3239"
         transform="translate(247.7954,190.61)">
        <path
           d="m 0,0 21.089,-21.092 4.412,4.413 L 8.834,0 Z"
           style="fill:#25285c;fill-opacity:1;fill-rule:nonzero;stroke:none"
           id="path3241" />
      </g>
      <g
         id="g3243"
         transform="translate(226.7336,190.61)">
        <path
           d="M 0,0 31.618,-31.628 36.016,-27.23 8.795,0 Z"
           style="fill:#25285c;fill-opacity:1;fill-rule:nonzero;stroke:none"
           id="path3245" />
      </g>
      <g
         id="g3247"
         transform="translate(205.6702,190.61)">
        <path
           d="M 0,0 42.152,-42.161 46.56,-37.752 8.833,0 Z"
           style="fill:#25285c;fill-opacity:1;fill-rule:nonzero;stroke:none"
           id="path3249" />
      </g>
      <g
         id="g3251"
         transform="translate(268.887,190.61)">
        <path
           d="m 0,0 10.541,-10.545 4.398,4.4 L 8.794,0 Z"
           style="fill:#25285c;fill-opacity:1;fill-rule:nonzero;stroke:none"
           id="path3253" />
      </g>
      <g
         id="g3255"
         transform="translate(79.4018,106.3304)">
        <path
           d="M 0,0 H 8.795 L 68.069,59.188 63.8,63.825 Z"
           style="fill:#ef2e33;fill-opacity:1;fill-rule:nonzero;stroke:none"
           id="path3257" />
      </g>
      <g
         id="g3259"
         transform="translate(58.2981,106.3253)">
        <path
           d="M 0,0 8.839,0.005 79.03,70.284 74.628,74.685 Z"
           style="fill:#ef2e33;fill-opacity:1;fill-rule:nonzero;stroke:none"
           id="path3261" />
      </g>
      <g
         id="g3263"
         transform="translate(163.6529,106.3304)">
        <path
           d="M 0,0 H 8.796 L 25.87,17.135 21.473,21.533 Z"
           style="fill:#ef2e33;fill-opacity:1;fill-rule:nonzero;stroke:none"
           id="path3265" />
      </g>
      <g
         id="g3267"
         transform="translate(100.4644,106.3304)">
        <path
           d="m 0,0 h 8.835 l 48.5,48.648 -4.407,4.407 z"
           style="fill:#ef2e33;fill-opacity:1;fill-rule:nonzero;stroke:none"
           id="path3269" />
      </g>
      <g
         id="g3271"
         transform="translate(184.7154,106.3304)">
        <path
           d="m 0,0 8.834,-0.001 6.777,6.807 -4.416,4.416 z"
           style="fill:#ef2e33;fill-opacity:1;fill-rule:nonzero;stroke:none"
           id="path3273" />
      </g>
      <g
         id="g3275"
         transform="translate(142.5891,106.3292)">
        <path
           d="m 0,0 8.836,0.001 27.649,27.637 -4.412,4.411 z"
           style="fill:#ef2e33;fill-opacity:1;fill-rule:nonzero;stroke:none"
           id="path3277" />
      </g>
      <g
         id="g3279"
         transform="translate(121.5276,106.3304)">
        <path
           d="m 0,0 h 8.796 l 38.198,38.137 -4.399,4.398 z"
           style="fill:#ef2e33;fill-opacity:1;fill-rule:nonzero;stroke:none"
           id="path3281" />
      </g>
      <g
         id="g3283"
         transform="translate(200.8704,91.2449)">
        <path
           d="M 0,0 3.967,3.922 7.934,0 3.967,-3.922 Z"
           style="fill:#25285c;fill-opacity:1;fill-rule:nonzero;stroke:none"
           id="path3285" />
      </g>
      <g
         id="g3287">
        <g
           id="g3289"
           clip-path="url(#clipPath3293)">
          <g
             id="g3295"
             transform="translate(49.0995,95.7116)">
            <path
               d="m 0,0 v -9.682 h 1.248 v 4.54 h 4.686 v -4.54 H 7.196 V 0 H 5.934 V -4.052 H 1.248 V 0 Z m 20.401,-6.636 1.034,-3.046 h 1.336 L 19.467,0 h -1.508 l -3.29,-9.682 h 1.293 l 1.006,3.046 z m -3.175,0.975 0.948,2.802 c 0.187,0.59 0.345,1.18 0.489,1.754 h 0.028 c 0.144,-0.56 0.288,-1.135 0.503,-1.767 l 0.948,-2.789 z m 15.129,-4.021 1.38,5.042 c 0.359,1.251 0.574,2.199 0.747,3.162 h 0.028 c 0.13,-0.977 0.331,-1.925 0.632,-3.161 l 1.221,-5.043 h 1.308 L 40.414,0 h -1.278 l -1.279,-4.883 c -0.301,-1.209 -0.574,-2.286 -0.775,-3.35 h -0.029 c -0.144,1.02 -0.402,2.17 -0.675,3.319 L 35.2,0 H 33.893 L 32.6,-4.885 c -0.331,-1.25 -0.632,-2.399 -0.79,-3.362 h -0.029 c -0.173,0.934 -0.431,2.141 -0.718,3.348 L 29.913,0 h -1.321 l 2.456,-9.682 z m 15.302,0 h 1.249 v 3.692 l 0.919,1.063 3.19,-4.755 h 1.48 L 50.716,-4.108 54.222,0 H 52.67 L 49.71,-3.634 C 49.466,-3.95 49.207,-4.295 48.949,-4.669 H 48.906 V 0 h -1.249 z m 18.835,5.573 h -3.765 v 3.062 h 3.98 V 0 h -5.228 v -9.682 h 5.444 v 1.047 h -4.196 v 3.493 h 3.765 z m 7.732,4.368 0.231,-3.447 h 0.777 l 0.245,3.447 z m 6.881,-9.468 c 0.517,-0.344 1.536,-0.617 2.47,-0.617 2.285,0 3.39,1.292 3.39,2.786 0,1.423 -0.832,2.213 -2.47,2.846 -1.337,0.517 -1.926,0.963 -1.926,1.868 0,0.661 0.503,1.451 1.825,1.451 0.877,0 1.524,-0.287 1.839,-0.459 l 0.345,1.018 c -0.431,0.245 -1.148,0.474 -2.14,0.474 -1.884,0 -3.132,-1.119 -3.132,-2.628 0,-1.365 0.976,-2.184 2.557,-2.745 1.308,-0.503 1.825,-1.02 1.825,-1.925 0,-0.978 -0.747,-1.653 -2.027,-1.653 -0.862,0 -1.681,0.287 -2.24,0.632 z m 22.686,-0.445 c 0.416,-0.057 1.076,-0.114 1.939,-0.114 1.581,0 2.673,0.287 3.348,0.903 0.488,0.474 0.818,1.107 0.818,1.941 0,1.437 -1.076,2.198 -1.996,2.428 v 0.028 c 1.02,0.373 1.637,1.193 1.637,2.127 0,0.762 -0.302,1.337 -0.804,1.71 -0.603,0.488 -1.408,0.703 -2.658,0.703 -0.877,0 -1.738,-0.086 -2.284,-0.201 z m 1.249,8.679 c 0.201,0.043 0.531,0.086 1.106,0.086 1.265,0 2.128,-0.446 2.128,-1.581 0,-0.935 -0.776,-1.625 -2.099,-1.625 h -1.135 z m 0,-4.066 h 1.035 c 1.365,0 2.501,-0.547 2.501,-1.869 0,-1.409 -1.193,-1.883 -2.487,-1.883 -0.446,0 -0.805,0.014 -1.049,0.057 z m 17.572,-1.595 1.034,-3.046 h 1.336 L 121.678,0 h -1.508 l -3.29,-9.682 h 1.293 l 1.005,3.046 z m -3.175,0.975 0.948,2.802 c 0.187,0.59 0.345,1.18 0.489,1.754 h 0.028 c 0.144,-0.56 0.288,-1.135 0.503,-1.767 l 0.948,-2.789 z m 15.286,-4.021 v 4.123 L 137.97,0 h -1.422 l -1.394,-2.672 c -0.373,-0.732 -0.703,-1.365 -0.976,-1.997 h -0.029 c -0.301,0.676 -0.588,1.265 -0.961,1.997 L 131.823,0 H 130.4 l 3.061,-5.574 v -4.108 z m 38.807,0 v 4.137 c 0,1.61 -0.029,2.774 -0.101,3.995 l 0.043,0.014 c 0.489,-1.048 1.136,-2.155 1.811,-3.232 l 3.076,-4.914 h 1.262 V 0 h -1.176 v -4.05 c 0,-1.51 0.029,-2.688 0.144,-3.982 l -0.029,-0.014 c -0.46,0.991 -1.02,2.012 -1.739,3.147 L 173.716,0 h -1.363 v -9.682 z m 19.324,5.573 h -3.764 v 3.062 h 3.979 V 0 h -5.228 v -9.682 h 5.444 v 1.047 h -4.195 v 3.493 h 3.764 z m 11.107,-5.573 1.379,5.042 c 0.359,1.251 0.575,2.199 0.747,3.162 h 0.029 c 0.129,-0.977 0.33,-1.925 0.632,-3.161 l 1.221,-5.043 h 1.307 L 212.02,0 h -1.278 l -1.279,-4.883 c -0.302,-1.209 -0.575,-2.286 -0.776,-3.35 h -0.028 c -0.144,1.02 -0.403,2.17 -0.676,3.319 L 206.805,0 h -1.307 l -1.293,-4.885 c -0.33,-1.25 -0.632,-2.399 -0.79,-3.362 h -0.029 c -0.172,0.934 -0.431,2.141 -0.718,3.348 L 201.519,0 h -1.322 l 2.457,-9.682 z m 23.721,0 h 7.067 v 1.047 h -5.415 v 0.043 l 5.344,7.832 V 0 h -6.536 v -1.047 h 4.913 V -1.09 l -5.373,-7.861 z m 19.654,5.573 h -3.765 v 3.062 h 3.98 V 0 h -5.228 v -9.682 h 5.444 v 1.047 h -4.196 v 3.493 h 3.765 z m 13.089,-2.527 1.034,-3.046 h 1.336 L 259.491,0 h -1.508 l -3.29,-9.682 h 1.293 l 1.006,3.046 z m -3.175,0.975 0.948,2.802 c 0.187,0.59 0.345,1.18 0.489,1.754 h 0.028 c 0.144,-0.56 0.288,-1.135 0.503,-1.767 l 0.948,-2.789 z m 13.004,-4.021 h 5.386 v 1.047 h -4.138 V 0 h -1.248 z m 17.814,3.046 1.034,-3.046 h 1.336 L 287.134,0 h -1.508 l -3.289,-9.682 h 1.292 l 1.006,3.046 z m -3.175,0.975 0.948,2.802 c 0.187,0.59 0.345,1.18 0.489,1.754 h 0.029 c 0.143,-0.56 0.287,-1.135 0.502,-1.767 l 0.948,-2.789 z m 14.18,-4.021 v 4.137 c 0,1.61 -0.029,2.774 -0.1,3.995 l 0.043,0.014 c 0.488,-1.048 1.135,-2.155 1.811,-3.232 l 3.075,-4.914 h 1.263 V 0 h -1.176 v -4.05 c 0,-1.51 0.028,-2.688 0.143,-3.982 l -0.029,-0.014 c -0.459,0.991 -1.02,2.012 -1.738,3.147 L 299.26,0 h -1.363 v -9.682 z m 14.312,0.029 c 0.631,-0.072 1.378,-0.115 2.269,-0.115 1.882,0 3.377,0.487 4.283,1.392 0.904,0.891 1.392,2.184 1.392,3.765 0,1.566 -0.503,2.687 -1.364,3.478 -0.848,0.789 -2.127,1.205 -3.923,1.205 -0.992,0 -1.897,-0.086 -2.657,-0.201 z m 1.248,8.606 c 0.331,0.072 0.819,0.129 1.466,0.129 2.645,0 3.938,-1.451 3.924,-3.736 0,-2.616 -1.452,-4.11 -4.125,-4.11 -0.489,0 -0.949,0.014 -1.265,0.072 z"
               style="fill:#25285c;fill-opacity:1;fill-rule:nonzero;stroke:none"
               id="path3297" />
          </g>
          <g
             id="g3299"
             transform="translate(368.8309,209.9461)">
            <path
               d="m 0,0 c 0,0.438 -0.358,0.796 -0.802,0.796 h -1.177 v -2.181 h 0.519 v 0.589 h 0.56 l 0.438,-0.589 h 0.589 l -0.519,0.698 C -0.156,-0.548 0,-0.294 0,0 M -0.802,-0.277 H -1.46 v 0.554 h 0.658 c 0.156,0 0.289,-0.121 0.289,-0.277 0,-0.156 -0.133,-0.277 -0.289,-0.277 m -0.236,2.083 c -1.172,0 -2.124,-0.958 -2.124,-2.129 0,-1.171 0.952,-2.123 2.124,-2.123 1.171,0 2.128,0.952 2.128,2.123 0,1.171 -0.957,2.129 -2.128,2.129 m 0,-3.906 c -0.981,0 -1.777,0.796 -1.777,1.777 0,0.981 0.796,1.777 1.777,1.777 0.98,0 1.776,-0.796 1.776,-1.777 0,-0.981 -0.796,-1.777 -1.776,-1.777"
               style="fill:#25285c;fill-opacity:1;fill-rule:nonzero;stroke:none"
               id="path3301" />
          </g>
        </g>
      </g>
    </g>
  </g>
</svg>
